<?xml version="1.0" encoding="UTF-8" standalone="no"?>
<svg width="38px" height="38px" viewBox="0 0 38 38" version="1.1" xmlns="http://www.w3.org/2000/svg" xmlns:xlink="http://www.w3.org/1999/xlink">
    <!-- Generator: sketchtool 46.2 (44496) - http://www.bohemiancoding.com/sketch -->
    <title>88D5E897-4C67-4AB4-8A68-D1AE88EE5098</title>
    <desc>Created with sketchtool.</desc>
    <defs></defs>
    <g id="Page-1" stroke="none" stroke-width="1" fill="none" fill-rule="evenodd" stroke-linecap="round" stroke-linejoin="round">
        <g id="Hackathon" transform="translate(-988.000000, -662.000000)" stroke="#757575" stroke-width="3">
            <g id="Group-5" transform="translate(830.068105, 588.000000)">
                <path d="M179.984946,70.4711292 C183.385517,73.9421322 185.895385,77.8821689 186.647838,82.7879536 C187.075966,85.5784733 186.86344,88.3216283 186.30875,91.0689354 C185.754368,93.8156274 185.263651,96.5753908 184.762784,99.3325399 C184.735411,99.4829383 184.828295,99.6996165 184.936404,99.8232568 C186.251236,101.328624 187.581753,102.820151 188.899969,104.322597 C189.000696,104.437318 189.096809,104.60617 189.098039,104.750725 C189.112034,106.275469 189.106497,107.800366 189.10496,109.325264 C189.10496,109.374167 189.090504,109.422915 189.073742,109.528871 C187.150243,108.614486 185.250733,107.711481 183.32954,106.798172 C182.82406,108.514528 181.728828,109.562703 179.926047,109.527333 C178.191392,109.493347 177.145523,108.453784 176.684025,106.75988 C174.769445,107.663501 172.869167,108.560201 170.924753,109.477815 C170.911835,109.317729 170.895688,109.209005 170.895534,109.100128 C170.893843,107.677802 170.886923,106.255323 170.903531,104.833152 C170.905684,104.650459 170.989034,104.43132 171.108829,104.293378 C172.411205,102.794316 173.721731,101.30202 175.048558,99.8243333 C175.255856,99.5933534 175.29138,99.3835954 175.23771,99.1018676 C174.635809,95.933968 173.989004,92.7732962 173.455228,89.593863 C172.41505,83.3987739 173.875359,77.8355731 177.848613,72.9528556 C178.527558,72.118437 179.241566,71.312468 179.940349,70.4943503 C179.954497,70.4777418 179.982024,70.4725133 179.984946,70.4711292 Z" id="Page-1" transform="translate(180.000000, 90.000000) rotate(-315.000000) translate(-180.000000, -90.000000) "></path>
            </g>
        </g>
    </g>
</svg>