<?xml version="1.0" encoding="UTF-8" standalone="no"?>
<svg width="46px" height="28px" viewBox="0 0 46 28" version="1.1" xmlns="http://www.w3.org/2000/svg" xmlns:xlink="http://www.w3.org/1999/xlink">
    <!-- Generator: sketchtool 46.2 (44496) - http://www.bohemiancoding.com/sketch -->
    <title>9A6D46B0-3C47-439C-AADA-34B5A2CCDA55</title>
    <desc>Created with sketchtool.</desc>
    <defs></defs>
    <g id="Page-1" stroke="none" stroke-width="1" fill="none" fill-rule="evenodd" stroke-linecap="round" stroke-linejoin="round">
        <g id="Hackathon" transform="translate(-247.000000, -664.000000)" stroke="#757575" stroke-width="3">
            <g id="Group-4" transform="translate(90.000000, 588.000000)">
                <path d="M187.412741,84.1124391 C188.37341,83.5852463 189.357845,83.2525098 190.400077,83.0949191 C193.007278,82.7010099 195.39342,83.2623677 197.498815,84.846917 C202.084475,88.2978425 202.566834,94.8738439 198.524438,98.9587781 C196.729902,100.772084 194.516611,101.718708 191.954513,101.722624 C182.537693,101.736533 173.121008,101.727891 163.704188,101.728296 C162.046177,101.728296 160.674855,101.116839 159.677186,99.7769803 C157.714257,97.1408811 158.93501,93.3635661 162.064543,92.3658968 C162.275609,92.2986473 162.394308,92.197503 162.490591,91.9956195 C163.542141,89.7901601 165.275909,88.4666414 167.680416,88.0291146 C167.867715,87.9949497 167.968319,87.9524123 167.984929,87.7233859 C168.321987,83.08074 171.738207,79.2702053 176.295778,78.4387693 C180.708318,77.6338009 185.085071,79.7493242 187.188171,83.7032705 C187.256231,83.8312876 187.327667,83.9575492 187.412741,84.1124391 Z" id="Page-1"></path>
            </g>
        </g>
    </g>
</svg>