<?xml version="1.0" encoding="UTF-8" standalone="no"?>
<svg width="38px" height="36px" viewBox="0 0 38 36" version="1.1" xmlns="http://www.w3.org/2000/svg" xmlns:xlink="http://www.w3.org/1999/xlink">
    <!-- Generator: sketchtool 46.2 (44496) - http://www.bohemiancoding.com/sketch -->
    <title>EB387EE1-8451-4343-816C-FF8BA718E29B</title>
    <desc>Created with sketchtool.</desc>
    <defs></defs>
    <g id="Page-1" stroke="none" stroke-width="1" fill="none" fill-rule="evenodd">
        <g id="Hackathon" transform="translate(-621.000000, -661.000000)" stroke="#757575" stroke-width="3">
            <g id="Group-7" transform="translate(460.000000, 588.000000)">
                <path d="M196.621196,81.349174 C196.596123,77.892435 194.172645,75.4565855 190.755825,75.4496575 C183.581228,75.4349767 176.406465,75.4362963 169.231868,75.4595546 C168.543687,75.4618639 167.818392,75.5605054 167.175079,75.7935829 C164.740219,76.6754175 163.369466,78.7091135 163.363692,81.3392768 C163.355775,85.0228251 163.358909,88.7063734 163.365837,92.3899216 C163.366497,92.7869616 163.39058,93.18961 163.45953,93.579887 C163.954551,96.3807759 166.259429,98.3018096 169.157475,98.3156655 C172.085047,98.3296865 175.012619,98.3187996 177.940191,98.3189646 C178.097721,98.3189646 178.25525,98.3189646 178.408655,98.3189646 L178.408655,103.42485 C178.210548,103.42485 178.035369,103.424355 177.860189,103.42485 C176.444569,103.429799 175.028454,103.410829 173.613824,103.449593 C172.810012,103.471532 172.22971,104.139753 172.21074,104.948844 C172.191606,105.775254 172.724567,106.415764 173.530193,106.523643 C173.720053,106.549045 173.913542,106.558283 174.105382,106.558448 C178.036193,106.560427 181.96717,106.560592 185.898147,106.557953 C186.117203,106.557788 186.339559,106.548056 186.554656,106.509952 C187.2143,106.393001 187.702229,105.846679 187.764581,105.177633 C187.856624,104.189899 187.205888,103.446954 186.187473,103.431613 C184.813256,103.411159 183.438709,103.42551 182.064162,103.42485 C181.905808,103.424685 181.747454,103.42485 181.589429,103.42485 L181.589429,98.3189646 C181.785722,98.3189646 181.94985,98.3189646 182.114142,98.3189646 C184.959238,98.3189646 187.804335,98.324573 190.649431,98.3135212 C191.127792,98.3115417 191.617205,98.2896031 192.081876,98.1878276 C194.808206,97.5915253 196.599752,95.3593917 196.620536,92.4821299 C196.647259,88.7713645 196.648083,85.0599394 196.621196,81.349174 Z" id="Page-1"></path>
            </g>
        </g>
    </g>
</svg>