<?xml version="1.0" encoding="UTF-8" standalone="no"?>
<svg width="37px" height="49px" viewBox="0 0 37 49" version="1.1" xmlns="http://www.w3.org/2000/svg" xmlns:xlink="http://www.w3.org/1999/xlink">
    <!-- Generator: sketchtool 46.2 (44496) - http://www.bohemiancoding.com/sketch -->
    <title>DCA56623-D646-4157-8359-DE93C78E240F</title>
    <desc>Created with sketchtool.</desc>
    <defs></defs>
    <g id="Page-1" stroke="none" stroke-width="1" fill="none" fill-rule="evenodd">
        <g id="Hackathon" transform="translate(-57.000000, -39.000000)" fill="#2EFFB5">
            <g id="Group" transform="translate(76.415999, 67.334869) rotate(-45.000000) translate(-76.415999, -67.334869) translate(50.415999, 41.834869)">
                <g id="Group-6" transform="translate(0.135089, 0.032820)">
                    <path d="M26.7291463,12.4422275 C23.5497282,15.6216456 23.6920342,20.4155337 26.7291463,23.4526458 C29.7662584,26.4897579 34.5117374,26.5835157 37.6911555,23.4042367 C40.8231382,20.272254 40.8715473,15.384469 37.8344352,12.3473569 C34.7971839,9.31024476 29.861129,9.31024476 26.7291463,12.4422275 L26.7291463,12.4422275 Z M23.2178201,49.5518066 C22.8373638,49.9322628 21.9838064,49.9322628 21.3661735,49.31463 L0.581437332,28.5300329 C-0.0360564038,27.9124 0.0113789114,27.1062779 0.391835178,26.7258216 L5.61138912,21.5062677 C6.03830696,21.0793499 6.84554195,21.0309408 7.46303569,21.6484345 L28.2477719,42.4331707 C28.8652656,43.0506645 28.8641528,43.9053348 28.4373741,44.3321135 L23.2178201,49.5518066 Z M19.4682045,5.18128575 C26.3012547,-1.65176444 37.6911555,-1.55689381 44.7149207,5.46687138 C51.6901377,12.4422275 51.7850083,23.8319892 44.9519582,30.6650394 C38.0704989,37.5464986 26.8240169,37.3083483 19.8486608,30.3331313 C12.8248956,23.3093661 12.5867453,12.0628841 19.4682045,5.18128575 L19.4682045,5.18128575 Z" id="Fill-4"></path>
                </g>
            </g>
        </g>
    </g>
</svg>